<svg xmlns="http://www.w3.org/2000/svg" width="196" height="191" viewBox="0 0 196 191">
  <g id="Group_166" data-name="Group 166" transform="translate(-112 -220)">
    <path id="Union_1" data-name="Union 1" d="M4.13,38A4.131,4.131,0,0,1,0,33.87V4.13a4.131,4.131,0,0,1,8.261,0V29.739H33.87a4.131,4.131,0,0,1,0,8.261Z" transform="translate(112 373)" fill="#1ea8de"/>
    <path id="Union_2" data-name="Union 2" d="M4.13,38A4.131,4.131,0,0,1,0,33.87V4.13a4.131,4.131,0,0,1,8.261,0V29.739H33.87a4.131,4.131,0,0,1,0,8.261Z" transform="translate(269 411) rotate(-90)" fill="#1ea8de"/>
    <path id="Union_3" data-name="Union 3" d="M4.13,38A4.131,4.131,0,0,1,0,33.87V4.13a4.131,4.131,0,0,1,8.261,0V29.739H33.87a4.131,4.131,0,0,1,0,8.261Z" transform="translate(308 258) rotate(-180)" fill="#1ea8de"/>
    <path id="Union_4" data-name="Union 4" d="M4.13,38A4.131,4.131,0,0,1,0,33.87V4.13a4.131,4.131,0,0,1,8.261,0V29.739H33.87a4.131,4.131,0,0,1,0,8.261Z" transform="translate(150 220) rotate(90)" fill="#1ea8de"/>
  </g>
</svg>
